<?xml version="1.0" standalone="no"?>
<!DOCTYPE svg PUBLIC "-//W3C//DTD SVG 20010904//EN"
 "http://www.w3.org/TR/2001/REC-SVG-20010904/DTD/svg10.dtd">
<svg version="1.0" xmlns="http://www.w3.org/2000/svg"
 width="375.000000pt" height="375.000000pt" viewBox="0 0 375.000000 375.000000"
 preserveAspectRatio="xMidYMid meet">
<metadata>
Created by potrace 1.11, written by Peter Selinger 2001-2013
</metadata>
<g transform="translate(0.000000,375.000000) scale(0.100000,-0.100000)"
fill="#000000" stroke="none">
<path d="M1795 3482 c-73 -26 -1243 -701 -1283 -741 -19 -19 -44 -55 -56 -80
-21 -45 -21 -56 -24 -760 -3 -790 -4 -778 61 -862 34 -44 12 -31 950 -569 365
-210 399 -224 490 -199 67 19 1248 697 1299 746 20 20 47 59 60 87 l23 51 0
715 c0 585 -3 724 -14 764 -29 98 -52 114 -711 492 -567 326 -661 375 -725
374 -11 -1 -42 -9 -70 -18z m322 -657 c227 -58 440 -210 571 -407 17 -26 22
-42 15 -49 -6 -6 -100 -62 -209 -124 l-199 -115 -19 28 c-40 56 -130 133 -189
161 -192 90 -390 60 -546 -85 -143 -132 -187 -335 -115 -522 74 -188 243 -302
449 -302 150 0 256 49 366 168 49 55 63 64 77 56 9 -6 101 -59 205 -118 103
-59 187 -110 187 -113 0 -2 -17 -30 -39 -61 -198 -292 -563 -457 -911 -412
-412 53 -743 350 -837 750 -12 53 -18 115 -17 210 0 164 23 268 88 406 53 112
89 165 169 251 246 263 603 367 954 278z m653 -725 l0 -40 65 0 65 0 0 40 0
40 50 0 50 0 0 -40 0 -40 46 0 45 0 -3 -52 -3 -53 -43 -3 -43 -3 3 -62 3 -62
43 -3 42 -3 0 -50 0 -49 -45 0 -45 0 0 -46 0 -45 -47 3 -48 3 -3 43 -3 42 -64
0 -64 0 -3 -42 -3 -43 -47 -3 -47 -3 -3 43 c-3 43 -3 43 -45 46 l-43 3 0 49 0
49 43 3 42 3 3 62 3 62 -43 3 -43 3 -3 53 -3 52 45 0 46 0 0 40 0 40 50 0 50
0 0 -40z"/>
<path d="M2770 1885 l0 -65 65 0 65 0 0 65 0 65 -65 0 -65 0 0 -65z"/>
</g>
</svg>
